<mxfile host="app.diagrams.net" modified="2024-07-08T09:22:53.201Z" agent="Mozilla/5.0 (Windows NT 10.0; Win64; x64) AppleWebKit/537.36 (KHTML, like Gecko) Chrome/125.0.0.0 Safari/537.36 Edg/125.0.0.0" etag="5L2lBJMhKuc6ThPM8orJ" version="24.6.4" type="github">
  <diagram name="第 1 页" id="24Fl5IMK4wHFCsWBvVqt">
    <mxGraphModel dx="698" dy="418" grid="0" gridSize="10" guides="0" tooltips="1" connect="1" arrows="1" fold="1" page="1" pageScale="1" pageWidth="827" pageHeight="1169" math="0" shadow="0">
      <root>
        <mxCell id="0" />
        <mxCell id="1" parent="0" />
      </root>
    </mxGraphModel>
  </diagram>
</mxfile>
